<svg width="23" height="9" viewBox="0 0 23 9" fill="none" xmlns="http://www.w3.org/2000/svg">
<path d="M0.636 8C1.148 7.504 1.636 7.016 2.1 6.536C2.564 6.056 2.98 5.592 3.348 5.144C3.724 4.696 4.02 4.264 4.236 3.848C4.452 3.424 4.56 3.016 4.56 2.624C4.56 2.36 4.516 2.136 4.428 1.952C4.34 1.76 4.224 1.604 4.08 1.484C3.944 1.364 3.788 1.276 3.612 1.22C3.436 1.156 3.256 1.124 3.072 1.124C2.808 1.124 2.584 1.168 2.4 1.256C2.216 1.336 2.064 1.444 1.944 1.58C1.832 1.716 1.748 1.86 1.692 2.012C1.644 2.164 1.62 2.316 1.62 2.468C1.62 2.732 1.66 2.972 1.74 3.188C1.82 3.396 1.936 3.58 2.088 3.74L1.368 4.376C1.184 4.256 1.024 4.088 0.888 3.872C0.76 3.656 0.66 3.424 0.588 3.176C0.524 2.92 0.492 2.692 0.492 2.492C0.492 2.06 0.596 1.656 0.804 1.28C1.02 0.896 1.332 0.588 1.74 0.356C2.156 0.124 2.66 0.0079999 3.252 0.0079999C3.756 0.0079999 4.196 0.124 4.572 0.356C4.948 0.588 5.24 0.896 5.448 1.28C5.656 1.656 5.76 2.072 5.76 2.528C5.76 2.928 5.68 3.32 5.52 3.704C5.36 4.088 5.144 4.468 4.872 4.844C4.608 5.22 4.312 5.592 3.984 5.96C3.664 6.32 3.344 6.684 3.024 7.052L2.52 6.884H6.024V8H0.636ZM10.2831 8.036C9.79506 8.036 9.34706 7.944 8.93906 7.76C8.53106 7.576 8.17906 7.312 7.88306 6.968C7.59506 6.616 7.37106 6.192 7.21106 5.696C7.05106 5.2 6.97106 4.644 6.97106 4.028C6.97106 3.356 7.04706 2.772 7.19906 2.276C7.35106 1.772 7.57106 1.352 7.85906 1.016C8.15506 0.68 8.50706 0.432 8.91506 0.271999C9.32306 0.104 9.77906 0.0199997 10.2831 0.0199997C10.7711 0.0199997 11.2151 0.112 11.6151 0.296C12.0231 0.48 12.3711 0.748 12.6591 1.1C12.9551 1.444 13.1831 1.864 13.3431 2.36C13.5111 2.848 13.5951 3.404 13.5951 4.028C13.5951 4.66 13.5111 5.224 13.3431 5.72C13.1831 6.216 12.9551 6.636 12.6591 6.98C12.3711 7.324 12.0231 7.588 11.6151 7.772C11.2151 7.948 10.7711 8.036 10.2831 8.036ZM10.2711 6.92C10.7351 6.92 11.1231 6.8 11.4351 6.56C11.7551 6.312 11.9951 5.968 12.1551 5.528C12.3151 5.088 12.3951 4.58 12.3951 4.004C12.3951 3.428 12.3151 2.928 12.1551 2.504C11.9951 2.072 11.7551 1.736 11.4351 1.496C11.1231 1.256 10.7351 1.136 10.2711 1.136C9.80706 1.136 9.41906 1.26 9.10706 1.508C8.79506 1.748 8.55906 2.084 8.39906 2.516C8.24706 2.948 8.17106 3.452 8.17106 4.028C8.17106 4.596 8.24706 5.1 8.39906 5.54C8.55906 5.972 8.79506 6.312 9.10706 6.56C9.41906 6.8 9.80706 6.92 10.2711 6.92ZM16.4756 4.796C16.1076 4.796 15.7956 4.712 15.5396 4.544C15.2836 4.368 15.0916 4.128 14.9636 3.824C14.8356 3.512 14.7716 3.152 14.7716 2.744C14.7716 2.344 14.8356 1.992 14.9636 1.688C15.0916 1.376 15.2836 1.136 15.5396 0.968C15.7956 0.792 16.1076 0.704 16.4756 0.704C16.8356 0.704 17.1396 0.792 17.3876 0.968C17.6436 1.136 17.8396 1.376 17.9756 1.688C18.1116 1.992 18.1796 2.344 18.1796 2.744C18.1796 3.152 18.1116 3.512 17.9756 3.824C17.8396 4.128 17.6436 4.368 17.3876 4.544C17.1396 4.712 16.8356 4.796 16.4756 4.796ZM15.7556 2.756C15.7556 3.14 15.8156 3.444 15.9356 3.668C16.0636 3.892 16.2436 4.004 16.4756 4.004C16.7076 4.004 16.8836 3.892 17.0036 3.668C17.1236 3.444 17.1836 3.14 17.1836 2.756C17.1836 2.34 17.1236 2.028 17.0036 1.82C16.8836 1.612 16.7076 1.508 16.4756 1.508C16.2436 1.508 16.0636 1.612 15.9356 1.82C15.8156 2.02 15.7556 2.332 15.7556 2.756ZM20.9756 8.192C20.6076 8.192 20.2956 8.104 20.0396 7.928C19.7916 7.752 19.5996 7.512 19.4636 7.208C19.3356 6.904 19.2716 6.548 19.2716 6.14C19.2716 5.74 19.3356 5.388 19.4636 5.084C19.5996 4.772 19.7916 4.532 20.0396 4.364C20.2956 4.188 20.6076 4.1 20.9756 4.1C21.3436 4.1 21.6516 4.188 21.8996 4.364C22.1556 4.532 22.3516 4.772 22.4876 5.084C22.6236 5.388 22.6916 5.74 22.6916 6.14C22.6916 6.548 22.6236 6.908 22.4876 7.22C22.3516 7.524 22.1556 7.764 21.8996 7.94C21.6516 8.108 21.3436 8.192 20.9756 8.192ZM20.2556 6.152C20.2556 6.536 20.3156 6.84 20.4356 7.064C20.5636 7.288 20.7436 7.4 20.9756 7.4C21.2076 7.4 21.3836 7.288 21.5036 7.064C21.6316 6.84 21.6956 6.536 21.6956 6.152C21.6956 5.736 21.6316 5.424 21.5036 5.216C21.3836 5.008 21.2076 4.904 20.9756 4.904C20.7436 4.904 20.5636 5.008 20.4356 5.216C20.3156 5.416 20.2556 5.728 20.2556 6.152ZM21.8516 0.692L16.8476 8.012L15.7436 8L20.7236 0.692H21.8516Z" fill="#C4140F"/>
</svg>
