<svg width="181" height="36" viewBox="0 0 181 36" fill="none" xmlns="http://www.w3.org/2000/svg">
<path d="M3.68 24.2C2.61333 24.2 1.80667 23.9 1.26 23.3C0.713333 22.6867 0.44 21.8133 0.44 20.68V19.88H2.52V20.84C2.52 21.7467 2.9 22.2 3.66 22.2C4.03333 22.2 4.31333 22.0933 4.5 21.88C4.7 21.6533 4.8 21.2933 4.8 20.8C4.8 20.2133 4.66667 19.7 4.4 19.26C4.13333 18.8067 3.64 18.2667 2.92 17.64C2.01333 16.84 1.38 16.12 1.02 15.48C0.66 14.8267 0.48 14.0933 0.48 13.28C0.48 12.1733 0.76 11.32 1.32 10.72C1.88 10.1067 2.69333 9.8 3.76 9.8C4.81333 9.8 5.60667 10.1067 6.14 10.72C6.68667 11.32 6.96 12.1867 6.96 13.32V13.9H4.88V13.18C4.88 12.7 4.78667 12.3533 4.6 12.14C4.41333 11.9133 4.14 11.8 3.78 11.8C3.04667 11.8 2.68 12.2467 2.68 13.14C2.68 13.6467 2.81333 14.12 3.08 14.56C3.36 15 3.86 15.5333 4.58 16.16C5.5 16.96 6.13333 17.6867 6.48 18.34C6.82667 18.9933 7 19.76 7 20.64C7 21.7867 6.71333 22.6667 6.14 23.28C5.58 23.8933 4.76 24.2 3.68 24.2ZM14.9814 12H12.6814V10H19.4814V12H17.1814V24H14.9814V12ZM26.3286 10H29.3086L31.5886 24H29.3886L28.9886 21.22V21.26H26.4886L26.0886 24H24.0486L26.3286 10ZM28.7286 19.36L27.7486 12.44H27.7086L26.7486 19.36H28.7286ZM37.6559 10H40.9159C42.0493 10 42.8759 10.2667 43.3959 10.8C43.9159 11.32 44.1759 12.1267 44.1759 13.22V14.08C44.1759 15.5333 43.6959 16.4533 42.7359 16.84V16.88C43.2693 17.04 43.6426 17.3667 43.8559 17.86C44.0826 18.3533 44.1959 19.0133 44.1959 19.84V22.3C44.1959 22.7 44.2093 23.0267 44.2359 23.28C44.2626 23.52 44.3293 23.76 44.4359 24H42.1959C42.1159 23.7733 42.0626 23.56 42.0359 23.36C42.0093 23.16 41.9959 22.8 41.9959 22.28V19.72C41.9959 19.08 41.8893 18.6333 41.6759 18.38C41.4759 18.1267 41.1226 18 40.6159 18H39.8559V24H37.6559V10ZM40.6559 16C41.0959 16 41.4226 15.8867 41.6359 15.66C41.8626 15.4333 41.9759 15.0533 41.9759 14.52V13.44C41.9759 12.9333 41.8826 12.5667 41.6959 12.34C41.5226 12.1133 41.2426 12 40.8559 12H39.8559V16H40.6559ZM52.4033 12H50.1033V10H56.9033V12H54.6033V24H52.4033V12ZM71.1716 10H73.9316L76.0716 18.38H76.1116V10H78.0716V24H75.8116L73.1716 13.78H73.1316V24H71.1716V10ZM87.8867 24.2C86.8067 24.2 85.9801 23.8933 85.4067 23.28C84.8334 22.6667 84.5467 21.8 84.5467 20.68V13.32C84.5467 12.2 84.8334 11.3333 85.4067 10.72C85.9801 10.1067 86.8067 9.8 87.8867 9.8C88.9667 9.8 89.7934 10.1067 90.3667 10.72C90.9401 11.3333 91.2267 12.2 91.2267 13.32V20.68C91.2267 21.8 90.9401 22.6667 90.3667 23.28C89.7934 23.8933 88.9667 24.2 87.8867 24.2ZM87.8867 22.2C88.6467 22.2 89.0267 21.74 89.0267 20.82V13.18C89.0267 12.26 88.6467 11.8 87.8867 11.8C87.1267 11.8 86.7467 12.26 86.7467 13.18V20.82C86.7467 21.74 87.1267 22.2 87.8867 22.2ZM97.1945 10H99.3145L100.295 20.76H100.335L101.375 10H103.775L104.815 20.76H104.855L105.835 10H107.735L106.315 24H103.575L102.575 14.56H102.535L101.535 24H98.6145L97.1945 10Z" fill="#C4140F"/>
<path d="M131.5 17H171M171 17L166.5 12.5M171 17L166.5 21.5" stroke="#C4140F"/>
<circle cx="166" cy="17" r="14.5" stroke="#C4140F"/>
</svg>
