<svg width="80" height="80" viewBox="0 0 80 80" fill="none" xmlns="http://www.w3.org/2000/svg">
<rect width="80" height="80" fill="#FAFF05"/>
<path d="M36.1313 30.176C36.1313 28.976 36.3233 27.952 36.7073 27.104C37.0913 26.24 37.7793 25.288 38.7713 24.248C39.7473 23.208 40.4193 22.32 40.7873 21.584C41.1713 20.848 41.3633 20.08 41.3633 19.28C41.3633 18.56 41.2433 18.064 41.0033 17.792C40.7793 17.504 40.4433 17.36 39.9953 17.36C39.0833 17.36 38.6273 17.912 38.6273 19.016V20.816H36.1313V19.184C36.1313 17.824 36.4673 16.784 37.1393 16.064C37.8113 15.328 38.7873 14.96 40.0673 14.96C41.3473 14.96 42.3233 15.328 42.9953 16.064C43.6673 16.784 44.0033 17.824 44.0033 19.184C44.0033 20.208 43.7553 21.208 43.2593 22.184C42.7793 23.16 41.9393 24.28 40.7393 25.544C39.9553 26.376 39.4273 27.056 39.1553 27.584C38.8833 28.096 38.7473 28.648 38.7473 29.24V29.6H43.7633V32H36.1313V30.176ZM24.0996 45.2H27.4116L29.9796 55.256H30.0276V45.2H32.3796V62H29.6676L26.4996 49.736H26.4516V62H24.0996V45.2ZM40.5578 62.24C39.2618 62.24 38.2698 61.872 37.5818 61.136C36.8938 60.4 36.5498 59.36 36.5498 58.016V49.184C36.5498 47.84 36.8938 46.8 37.5818 46.064C38.2698 45.328 39.2618 44.96 40.5578 44.96C41.8538 44.96 42.8458 45.328 43.5338 46.064C44.2218 46.8 44.5658 47.84 44.5658 49.184V58.016C44.5658 59.36 44.2218 60.4 43.5338 61.136C42.8458 61.872 41.8538 62.24 40.5578 62.24ZM40.5578 59.84C41.4698 59.84 41.9258 59.288 41.9258 58.184V49.016C41.9258 47.912 41.4698 47.36 40.5578 47.36C39.6458 47.36 39.1898 47.912 39.1898 49.016V58.184C39.1898 59.288 39.6458 59.84 40.5578 59.84ZM48.0083 45.2H50.6723L52.4003 58.232H52.4483L54.1763 45.2H56.6003L54.0563 62H50.5523L48.0083 45.2Z" fill="#100E18"/>
</svg>
