<svg width="26" height="32" viewBox="0 0 26 32" fill="none" xmlns="http://www.w3.org/2000/svg">
<path d="M13.3334 0.25C10.0525 0.253871 6.90714 1.5589 4.58722 3.87883C2.26729 6.19875 0.962258 9.34413 0.958387 12.625C0.954458 15.3061 1.83024 17.9145 3.45139 20.05C3.45139 20.05 3.78889 20.4944 3.84401 20.5585L13.3334 31.75L22.8273 20.5529C22.8768 20.4933 23.2154 20.05 23.2154 20.05L23.2165 20.0466C24.8369 17.9121 25.7122 15.3049 25.7084 12.625C25.7045 9.34413 24.3995 6.19875 22.0796 3.87883C19.7596 1.5589 16.6143 0.253871 13.3334 0.25ZM13.3334 17.125C12.4434 17.125 11.5733 16.8611 10.8333 16.3666C10.0933 15.8721 9.51652 15.1693 9.17593 14.3471C8.83533 13.5248 8.74622 12.62 8.91985 11.7471C9.09349 10.8742 9.52207 10.0724 10.1514 9.44302C10.7807 8.81368 11.5826 8.3851 12.4555 8.21147C13.3284 8.03783 14.2332 8.12695 15.0555 8.46754C15.8777 8.80814 16.5805 9.38491 17.075 10.1249C17.5695 10.865 17.8334 11.735 17.8334 12.625C17.8319 13.818 17.3573 14.9617 16.5137 15.8053C15.6701 16.6489 14.5264 17.1235 13.3334 17.125Z" fill="#FAFF05"/>
</svg>
