<svg width="20" height="20" viewBox="0 0 20 20" fill="none" xmlns="http://www.w3.org/2000/svg">
<g clip-path="url(#clip0_1302_392)">
<rect width="20" height="20" rx="2" fill="#FAFF05"/>
<path d="M6.742 14C7.33933 13.4213 7.90867 12.852 8.45 12.292C8.99133 11.732 9.47667 11.1907 9.906 10.668C10.3447 10.1453 10.69 9.64133 10.942 9.156C11.194 8.66133 11.32 8.18533 11.32 7.728C11.32 7.42 11.2687 7.15867 11.166 6.944C11.0633 6.72 10.928 6.538 10.76 6.398C10.6013 6.258 10.4193 6.15533 10.214 6.09C10.0087 6.01533 9.79867 5.978 9.584 5.978C9.276 5.978 9.01467 6.02933 8.8 6.132C8.58533 6.22533 8.408 6.35133 8.268 6.51C8.13733 6.66867 8.03933 6.83667 7.974 7.014C7.918 7.19133 7.89 7.36867 7.89 7.546C7.89 7.854 7.93667 8.134 8.03 8.386C8.12333 8.62867 8.25867 8.84333 8.436 9.03L7.596 9.772C7.38133 9.632 7.19467 9.436 7.036 9.184C6.88667 8.932 6.77 8.66133 6.686 8.372C6.61133 8.07333 6.574 7.80733 6.574 7.574C6.574 7.07 6.69533 6.59867 6.938 6.16C7.19 5.712 7.554 5.35267 8.03 5.082C8.51533 4.81133 9.10333 4.676 9.794 4.676C10.382 4.676 10.8953 4.81133 11.334 5.082C11.7727 5.35267 12.1133 5.712 12.356 6.16C12.5987 6.59867 12.72 7.084 12.72 7.616C12.72 8.08267 12.6267 8.54 12.44 8.988C12.2533 9.436 12.0013 9.87933 11.684 10.318C11.376 10.7567 11.0307 11.1907 10.648 11.62C10.2747 12.04 9.90133 12.4647 9.528 12.894L8.94 12.698H13.028V14H6.742Z" fill="#100E18"/>
</g>
<defs>
<clipPath id="clip0_1302_392">
<rect width="20" height="20" fill="white"/>
</clipPath>
</defs>
</svg>
