<svg width="37" height="36" viewBox="0 0 37 36" fill="none" xmlns="http://www.w3.org/2000/svg">
<path d="M30.3334 16.4985H33.3334C33.3334 8.8035 27.5239 3 19.8184 3V6C25.9114 6 30.3334 10.4145 30.3334 16.4985Z" fill="#FAFF05"/>
<path d="M19.8338 12.0004C22.9883 12.0004 24.3338 13.3459 24.3338 16.5004H27.3338C27.3338 11.6629 24.6713 9.00036 19.8338 9.00036V12.0004ZM24.9668 20.1649C24.6786 19.9029 24.2998 19.7632 23.9105 19.7752C23.5212 19.7872 23.1518 19.9501 22.8803 20.2294L19.2908 23.9209C18.4268 23.7559 16.6898 23.2144 14.9018 21.4309C13.1138 19.6414 12.5723 17.8999 12.4118 17.0419L16.1003 13.4509C16.3799 13.1796 16.543 12.8101 16.555 12.4207C16.5671 12.0312 16.4271 11.6524 16.1648 11.3644L10.6223 5.26986C10.3599 4.98089 9.99512 4.80561 9.60553 4.78125C9.21594 4.75688 8.83219 4.88535 8.5358 5.13936L5.2808 7.93086C5.02146 8.19113 4.86668 8.53753 4.8458 8.90436C4.8233 9.27936 4.3943 18.1624 11.2823 25.0534C17.2913 31.0609 24.8183 31.5004 26.8913 31.5004C27.1943 31.5004 27.3803 31.4914 27.4298 31.4884C27.7966 31.4678 28.1428 31.3123 28.4018 31.0519L31.1918 27.7954C31.446 27.4992 31.5747 27.1155 31.5506 26.7259C31.5265 26.3364 31.3515 25.9715 31.0628 25.7089L24.9668 20.1649Z" fill="#FAFF05"/>
</svg>
