<svg width="230" height="230" viewBox="0 0 230 230" fill="none" xmlns="http://www.w3.org/2000/svg">
<circle cx="115" cy="115" r="70" fill="#FAFF05"/>
<circle cx="115" cy="115" r="114.5" stroke="#FAFF05"/>
<path d="M104.875 128.5C104.577 128.5 104.29 128.381 104.08 128.17C103.869 127.959 103.75 127.673 103.75 127.375V102.625C103.75 102.429 103.801 102.237 103.898 102.067C103.995 101.898 104.134 101.756 104.303 101.657C104.471 101.557 104.662 101.503 104.858 101.5C105.053 101.497 105.246 101.545 105.417 101.639L127.917 114.014C128.094 114.111 128.241 114.254 128.343 114.427C128.446 114.601 128.5 114.798 128.5 115C128.5 115.201 128.446 115.399 128.343 115.572C128.241 115.746 128.094 115.888 127.917 115.985L105.417 128.36C105.251 128.452 105.065 128.5 104.875 128.5Z" fill="#100E18"/>
</svg>
